<svg xmlns="http://www.w3.org/2000/svg" viewBox="0 0 64 64"><title>clipboard</title><g id="_06-clipboard" data-name="06-clipboard"><polyline points="26 19 37 19 37 63 1 63 1 19 12 19" style="fill:none;stroke:#000;stroke-linejoin:round;stroke-width:2px"/><polyline points="26 22 34 22 34 60 4 60 4 22 12 22" style="fill:none;stroke:#000;stroke-linejoin:round;stroke-width:2px"/><rect x="12" y="17" width="14" height="7" style="fill:none;stroke:#000;stroke-linejoin:round;stroke-width:2px"/><rect x="7" y="27" width="8" height="8" style="fill:none;stroke:#000;stroke-linejoin:round;stroke-width:2px"/><rect x="7" y="38" width="8" height="8" style="fill:none;stroke:#000;stroke-linejoin:round;stroke-width:2px"/><rect x="7" y="49" width="8" height="8" style="fill:none;stroke:#000;stroke-linejoin:round;stroke-width:2px"/><line x1="18" y1="29" x2="32" y2="29" style="fill:none;stroke:#000;stroke-linejoin:round;stroke-width:2px"/><line x1="18" y1="33" x2="27" y2="33" style="fill:none;stroke:#000;stroke-linejoin:round;stroke-width:2px"/><line x1="29" y1="33" x2="32" y2="33" style="fill:none;stroke:#000;stroke-linejoin:round;stroke-width:2px"/><polyline points="9 30 11 32 17 27" style="fill:none;stroke:#000;stroke-linejoin:round;stroke-width:2px"/><polyline points="9 41 11 43 17 38" style="fill:none;stroke:#000;stroke-linejoin:round;stroke-width:2px"/><polyline points="9 52 11 54 17 49" style="fill:none;stroke:#000;stroke-linejoin:round;stroke-width:2px"/><line x1="18" y1="40" x2="23" y2="40" style="fill:none;stroke:#000;stroke-linejoin:round;stroke-width:2px"/><line x1="25" y1="40" x2="32" y2="40" style="fill:none;stroke:#000;stroke-linejoin:round;stroke-width:2px"/><line x1="18" y1="44" x2="26" y2="44" style="fill:none;stroke:#000;stroke-linejoin:round;stroke-width:2px"/><line x1="28" y1="44" x2="32" y2="44" style="fill:none;stroke:#000;stroke-linejoin:round;stroke-width:2px"/><line x1="18" y1="55" x2="32" y2="55" style="fill:none;stroke:#000;stroke-linejoin:round;stroke-width:2px"/><line x1="18" y1="51" x2="28" y2="51" style="fill:none;stroke:#000;stroke-linejoin:round;stroke-width:2px"/><line x1="30" y1="51" x2="32" y2="51" style="fill:none;stroke:#000;stroke-linejoin:round;stroke-width:2px"/><polyline points="33 16 37 16 40 10 43 24 46 15 48 20 50 16 53 16" style="fill:none;stroke:#000;stroke-linejoin:round;stroke-width:2px"/><path d="M23.3,15a13.893,13.893,0,0,1-.3-2.862h0A11.1,11.1,0,0,1,43,5.476a11.1,11.1,0,0,1,20,6.662h0a13.454,13.454,0,0,1-4.824,10.407L43,35l-4-3.283" style="fill:none;stroke:#000;stroke-linejoin:round;stroke-width:2px"/></g></svg>