<svg xmlns="http://www.w3.org/2000/svg" viewBox="0 0 64 64"><title>Covid-19</title><g id="_02-covid" data-name="02-covid"><circle cx="28.125" cy="24.25" r="3.875" style="fill:none;stroke:#000;stroke-linejoin:round;stroke-width:2px"/><ellipse cx="38.458" cy="39.104" rx="4.521" ry="3.875" transform="translate(-16.181 43.867) rotate(-50.459)" style="fill:none;stroke:#000;stroke-linejoin:round;stroke-width:2px"/><ellipse cx="41.042" cy="26.187" rx="2.583" ry="3.229" transform="translate(-7.077 18.788) rotate(-23.799)" style="fill:none;stroke:#000;stroke-linejoin:round;stroke-width:2px"/><ellipse cx="22.312" cy="35.875" rx="2.583" ry="3.229" transform="translate(-19.302 43.162) rotate(-68.052)" style="fill:none;stroke:#000;stroke-linejoin:round;stroke-width:2px"/><path d="M61,27a2,2,0,0,0-2,2v1H49.883a17.9,17.9,0,0,0-3.827-9.227l3.187-3.187.707.707a2,2,0,0,0,2.828,0h0a2,2,0,0,0,0-2.829l-4.242-4.242a2,2,0,1,0-2.829,2.828l.707.707-3.187,3.187A17.9,17.9,0,0,0,34,14.117V5h1a2,2,0,0,0,0-4H29a2,2,0,0,0,0,4h1v9.117a17.9,17.9,0,0,0-9.227,3.827l-3.187-3.187.707-.707a2,2,0,0,0-2.829-2.828l-4.242,4.242a2,2,0,0,0,0,2.829h0a2,2,0,0,0,2.828,0l.707-.707,3.187,3.187A17.9,17.9,0,0,0,14.117,30H5V29a2,2,0,0,0-4,0v6a2,2,0,0,0,4,0V34h9.117a17.9,17.9,0,0,0,3.827,9.227l-3.187,3.187-.707-.707a2,2,0,1,0-2.828,2.829l4.242,4.242a2,2,0,1,0,2.829-2.828l-.707-.707,3.187-3.187A17.9,17.9,0,0,0,30,49.883V59H29a2,2,0,0,0,0,4h6a2,2,0,0,0,0-4H34V49.883a17.9,17.9,0,0,0,9.227-3.827l3.187,3.187-.707.707a2,2,0,1,0,2.829,2.828l4.242-4.242a2,2,0,1,0-2.828-2.829l-.707.707-3.187-3.187A17.9,17.9,0,0,0,49.883,34H59v1a2,2,0,0,0,4,0V29A2,2,0,0,0,61,27Z" style="fill:none;stroke:#000;stroke-linejoin:round;stroke-width:2px"/></g></svg>