<svg xmlns="http://www.w3.org/2000/svg" viewBox="0 0 64 64"><title>crowded</title><g id="_12-crowd" data-name="12-crowd"><polygon points="35.536 6.636 32 10.172 28.464 6.636 25.636 9.464 29.172 13 25.636 16.536 28.464 19.364 32 15.828 35.536 19.364 38.364 16.536 34.828 13 38.364 9.464 35.536 6.636" style="fill:none;stroke:#000;stroke-linejoin:round;stroke-width:2px"/><path d="M8,37H8a6,6,0,0,0-6,6v8H5V63h6V51h3V43A6,6,0,0,0,8,37Z" style="fill:none;stroke:#000;stroke-linejoin:round;stroke-width:2px"/><path d="M56,37h0a6,6,0,0,0-6,6v8h3V63h6V51h3V43A6,6,0,0,0,56,37Z" style="fill:none;stroke:#000;stroke-linejoin:round;stroke-width:2px"/><path d="M40,37h0a6,6,0,0,0-6,6v8h3V63h6V51h3V43A6,6,0,0,0,40,37Z" style="fill:none;stroke:#000;stroke-linejoin:round;stroke-width:2px"/><path d="M24,37h0a6,6,0,0,0-6,6v8h3V63h6V51h3V43A6,6,0,0,0,24,37Z" style="fill:none;stroke:#000;stroke-linejoin:round;stroke-width:2px"/><circle cx="8" cy="34" r="3" style="fill:none;stroke:#000;stroke-linejoin:round;stroke-width:2px"/><path d="M22,30a6,6,0,0,0-6-6h0a6,6,0,0,0-6,6" style="fill:none;stroke:#000;stroke-linejoin:round;stroke-width:2px"/><circle cx="16" cy="21" r="3" style="fill:none;stroke:#000;stroke-linejoin:round;stroke-width:2px"/><path d="M54,30a6,6,0,0,0-6-6h0a6,6,0,0,0-6,6" style="fill:none;stroke:#000;stroke-linejoin:round;stroke-width:2px"/><circle cx="48" cy="21" r="3" style="fill:none;stroke:#000;stroke-linejoin:round;stroke-width:2px"/><circle cx="24" cy="34" r="3" style="fill:none;stroke:#000;stroke-linejoin:round;stroke-width:2px"/><circle cx="40" cy="34" r="3" style="fill:none;stroke:#000;stroke-linejoin:round;stroke-width:2px"/><circle cx="56" cy="34" r="3" style="fill:none;stroke:#000;stroke-linejoin:round;stroke-width:2px"/><path d="M44,13A12,12,0,1,0,29.953,24.813L32,33l2.047-8.187A11.994,11.994,0,0,0,44,13Z" style="fill:none;stroke:#000;stroke-linejoin:round;stroke-width:2px"/></g></svg>