<svg xmlns="http://www.w3.org/2000/svg" viewBox="0 0 64 64"><title>disease</title><g id="_08-disease" data-name="08-disease"><circle cx="43" cy="21" r="10" style="fill:none;stroke:#000;stroke-linejoin:round;stroke-width:2px"/><circle cx="41.5" cy="16.5" r="1.5" style="fill:none;stroke:#000;stroke-linejoin:round;stroke-width:2px"/><circle cx="47.5" cy="22.5" r="1.5" style="fill:none;stroke:#000;stroke-linejoin:round;stroke-width:2px"/><circle cx="41" cy="24" r="2" style="fill:none;stroke:#000;stroke-linejoin:round;stroke-width:2px"/><line x1="43" y1="11" x2="43" y2="5" style="fill:none;stroke:#000;stroke-linejoin:round;stroke-width:2px"/><line x1="43" y1="37" x2="43" y2="31" style="fill:none;stroke:#000;stroke-linejoin:round;stroke-width:2px"/><line x1="53" y1="21" x2="59" y2="21" style="fill:none;stroke:#000;stroke-linejoin:round;stroke-width:2px"/><line x1="27" y1="21" x2="33" y2="21" style="fill:none;stroke:#000;stroke-linejoin:round;stroke-width:2px"/><circle cx="43" cy="3" r="2" style="fill:none;stroke:#000;stroke-linejoin:round;stroke-width:2px"/><circle cx="31.586" cy="10.586" r="2" style="fill:none;stroke:#000;stroke-linejoin:round;stroke-width:2px"/><circle cx="43" cy="38" r="2" style="fill:none;stroke:#000;stroke-linejoin:round;stroke-width:2px"/><circle cx="25" cy="21" r="2" style="fill:none;stroke:#000;stroke-linejoin:round;stroke-width:2px"/><circle cx="3" cy="44" r="2" style="fill:none;stroke:#000;stroke-linejoin:round;stroke-width:2px"/><circle cx="61" cy="21" r="2" style="fill:none;stroke:#000;stroke-linejoin:round;stroke-width:2px"/><circle cx="20" cy="44" r="10" style="fill:none;stroke:#000;stroke-linejoin:round;stroke-width:2px"/><circle cx="18.5" cy="39.5" r="1.5" style="fill:none;stroke:#000;stroke-linejoin:round;stroke-width:2px"/><circle cx="24.5" cy="45.5" r="1.5" style="fill:none;stroke:#000;stroke-linejoin:round;stroke-width:2px"/><circle cx="18" cy="47" r="2" style="fill:none;stroke:#000;stroke-linejoin:round;stroke-width:2px"/><line x1="20" y1="34" x2="20" y2="28" style="fill:none;stroke:#000;stroke-linejoin:round;stroke-width:2px"/><line x1="20" y1="60" x2="20" y2="54" style="fill:none;stroke:#000;stroke-linejoin:round;stroke-width:2px"/><line x1="30" y1="44" x2="36" y2="44" style="fill:none;stroke:#000;stroke-linejoin:round;stroke-width:2px"/><line x1="4" y1="44" x2="10" y2="44" style="fill:none;stroke:#000;stroke-linejoin:round;stroke-width:2px"/><circle cx="20" cy="26" r="2" style="fill:none;stroke:#000;stroke-linejoin:round;stroke-width:2px"/><circle cx="20" cy="61" r="2" style="fill:none;stroke:#000;stroke-linejoin:round;stroke-width:2px"/><circle cx="38" cy="44" r="2" style="fill:none;stroke:#000;stroke-linejoin:round;stroke-width:2px"/><path d="M19,18h0a3,3,0,0,1,3-3h0" style="fill:none;stroke:#000;stroke-linejoin:round;stroke-width:2px"/><path d="M15,17h0a6,6,0,0,1,6-6h0" style="fill:none;stroke:#000;stroke-linejoin:round;stroke-width:2px"/><path d="M4.487,28.887h0a3,3,0,0,1,3.981-1.466h0" style="fill:none;stroke:#000;stroke-linejoin:round;stroke-width:2px"/><path d="M1.274,26.3h0A6,6,0,0,1,9.237,23.37h0" style="fill:none;stroke:#000;stroke-linejoin:round;stroke-width:2px"/><path d="M56,5h0a3,3,0,0,1,3,3h0" style="fill:none;stroke:#000;stroke-linejoin:round;stroke-width:2px"/><path d="M57,1h0a6,6,0,0,1,6,6h0" style="fill:none;stroke:#000;stroke-linejoin:round;stroke-width:2px"/><line x1="33" y1="12" x2="35.828" y2="14.828" style="fill:none;stroke:#000;stroke-linejoin:round;stroke-width:2px"/><circle cx="54.414" cy="10.586" r="2" style="fill:none;stroke:#000;stroke-linejoin:round;stroke-width:2px"/><line x1="53" y1="12" x2="50.172" y2="14.828" style="fill:none;stroke:#000;stroke-linejoin:round;stroke-width:2px"/><circle cx="8.586" cy="33.586" r="2" style="fill:none;stroke:#000;stroke-linejoin:round;stroke-width:2px"/><line x1="10" y1="35" x2="12.828" y2="37.828" style="fill:none;stroke:#000;stroke-linejoin:round;stroke-width:2px"/><circle cx="8.586" cy="54.414" r="2" style="fill:none;stroke:#000;stroke-linejoin:round;stroke-width:2px"/><line x1="10" y1="53" x2="12.828" y2="50.172" style="fill:none;stroke:#000;stroke-linejoin:round;stroke-width:2px"/><circle cx="31.414" cy="54.414" r="2" style="fill:none;stroke:#000;stroke-linejoin:round;stroke-width:2px"/><line x1="30" y1="53" x2="27.172" y2="50.172" style="fill:none;stroke:#000;stroke-linejoin:round;stroke-width:2px"/><line x1="33" y1="30" x2="35.828" y2="27.172" style="fill:none;stroke:#000;stroke-linejoin:round;stroke-width:2px"/><circle cx="54.414" cy="31.414" r="2" style="fill:none;stroke:#000;stroke-linejoin:round;stroke-width:2px"/><line x1="53" y1="30" x2="50.172" y2="27.172" style="fill:none;stroke:#000;stroke-linejoin:round;stroke-width:2px"/><circle cx="31.414" cy="33.586" r="2" style="fill:none;stroke:#000;stroke-linejoin:round;stroke-width:2px"/><line x1="30" y1="35" x2="27.172" y2="37.828" style="fill:none;stroke:#000;stroke-linejoin:round;stroke-width:2px"/><path d="M37.672,57.621h0a3,3,0,0,0,0-4.242h0" style="fill:none;stroke:#000;stroke-linejoin:round;stroke-width:2px"/><path d="M40.5,60.45h0a7,7,0,0,0,0-9.9h0" style="fill:none;stroke:#000;stroke-linejoin:round;stroke-width:2px"/><path d="M52.379,37.672h0a3,3,0,0,0,4.242,0h0" style="fill:none;stroke:#000;stroke-linejoin:round;stroke-width:2px"/><path d="M49.55,40.5h0a7,7,0,0,0,9.9,0h0" style="fill:none;stroke:#000;stroke-linejoin:round;stroke-width:2px"/></g></svg>